<?xml version="1.0" encoding="utf-8"?>
<!-- Generator: Adobe Illustrator 24.0.0, SVG Export Plug-In . SVG Version: 6.00 Build 0)  -->
<svg version="1.1" id="圖層_1" xmlns="http://www.w3.org/2000/svg" xmlns:xlink="http://www.w3.org/1999/xlink" x="0px" y="0px"
	 viewBox="0 0 166 148" style="enable-background:new 0 0 166 148;" xml:space="preserve">
<style type="text/css">
	.st0{fill:#6ACEEA;}
	.st1{fill:#0288D1;}
	.st2{fill:#23A3DB;}
	.st3{fill:#44B9E2;}
	.st4{fill:#91D8E8;}
</style>
<g>
	<g>
		<g>
			<path class="st0" d="M122.9,24c0-1.2-0.2-1.8-0.9-2.3c-2,0.3-4,0.6-5.9,0.9c-1.1,0.2-2.1,0.3-3.2,0.5c-0.4,0.1-0.8,0.2-1.1,0.3
				c-0.2,0.1-0.3,0.2-0.3,0.2c0.1,0.4,1.2,1,1.5,1.2c0.6,0.6,1.1,1.3,1.6,2c0.9,1.6,1.5,3.2,2.6,4.6c1.1,1.4,2.4,2.7,3.8,4
				c0.6,0.6,1.2,1.3,2,1.7c0.7,0.4,1.4,0.1,2-0.4c1.4-1,1.4-2.2,1.5-3.8c0.1-1.4,0.4-2.8,1.4-3.7c0.7-0.6,1.5-0.8,2.3-0.9
				c0.6-0.1,1.5,0,2-0.3c0.9-0.6,1.1-1.9,1.2-3l-2.9-1.7l-3.8,1.5l-2.3,2.3C124.4,27,122.9,26.2,122.9,24z"/>
		</g>
	</g>
	<g>
		<g>
			<path class="st1" d="M153.3,49.4c-0.3,0-0.5-0.1-0.8-0.1c-2.3,0-4,2.1-5.9,3c-1.1,0.5-2.1,0.7-3.3,0.7c-0.6,0-2.4-0.4-2.9,0
				c-0.1,0.1-0.1,0.1,0.1,0.5c0.2,0.4,0.5,0.8,0.7,1.2c0.6,1,0.9,2.1,0.5,3.2c-0.9,2.8-3.9,2.7-6.2,3.3c-1.8,0.4-2.8,1.8-3.6,3.3
				c-1.7,2.8-3.4,6.8-7.3,6.6c-1.3-0.1-2.5-0.9-3.7-1c-1.2-0.1-1.9,1.1-2.5,2c-1.5,2.1-3.4,3.8-5.8,4.8c-1.2,0.5-2.5,0.8-3.8,0.9
				c-1.3,0.1-2.8,0.1-4,0.7c-1.3,0.7-1.3,1.6-0.7,2.9c0.5,1.1,0.7,2.2,0.4,3.5c-0.8,2.7-3.5,3.7-5.9,4.7c-2.6,1.1-4.2,3.6-6.9,4.6
				c-2.4,0.9-5.1,0.9-7.4,2.2c-2.1,1.1-3.9,2.6-5.3,4.5c-1.3,1.9-2.3,4.1-2.6,6.4c-0.2,1.4,0,2.9-0.5,4.3c-0.4,1.3-1.3,2.3-1.5,3.7
				c-0.2,1.4,0,2.9-0.5,4.3c-0.4,1-1,1.9-1.7,2.7c-1.7,1.6-3.9,2.5-5.7,4c-1.6,1.4-2.8,3.2-3.7,5.1l0.5,3.7l5.3,0.7l3.7,3.1
				c1.8-1.7,5.1-3.1,9.2-0.7c3.6,2.1,5.6,4.2,6.6,5.5c2.1-0.5,6.5-0.5,14.2,4.4l2.3-2.9l1.9-1.3l1-4.8l21.5,7
				c0.2-1.6,1.6-11.3,3-13.3c1.5-2.3,5.3-4.5,6-6.8c0.8-2.3,1.5-5.3,1.5-5.3l0.8-2.3c0,0,3.8,0.8,3.8-2.3c0-3-2.3-10.6-2.3-10.6
				l-3.8-9.8l-0.8-6.8c0,0-1.5,3-2.3-6.8c-0.8-9.8,3-12.1,4.5-16.6C140.8,61.5,150.8,51.7,153.3,49.4z"/>
		</g>
		<g>
			<path class="st2" d="M8.4,82.9c0.9-1.4,1.8-3.1,3.7-3.2c2-0.1,3.1,1.9,4.8,2.6c0.6,0.2,1.6,0.3,1.8-0.4c0.3-0.7-0.5-2-0.8-2.7
				c-0.8-1.8-1.5-3.8-2.6-5.4c-1.1-1.7-2.7-2.3-4.6-2.8c-2.6-0.6-4.9-1.6-6.9-3.1c-1.5,1.3-3.5,3.2-3.5,4.6c0,1.8,0.5,9.2,0.7,11.9
				c1.1,1,2.3,1.8,3.5,2.5C6.1,85.9,7.4,84.5,8.4,82.9z"/>
		</g>
		<g>
			<path class="st3" d="M70.1,106.6c-1.4-1.3-2.1-3.3-2.6-5c-0.6-1.9-1.1-3.9-2.3-5.5c-0.5-0.7-1.2-1.4-2-1.8
				c-0.7-0.4-1.5-0.4-2.3-0.6c-1.9-0.6-2-2.2-1.9-3.9c0.1-2.1,0.2-4.2,0.2-6.3c0-0.6,0.1-1.5-0.4-1.9c-0.4-0.5-1.6-0.3-2.2-0.4
				c-1.5-0.2-2.6-1-3.4-2.2c-0.7-1.1-1-2.3-1.7-3.3c-0.9-1.3-3.2-1.3-4.6-1.7c-1.8-0.5-3.6-1.2-5.3-1.9c-1.5-0.7-2.9-1.5-3.5-3.2
				c-0.3-0.9-0.3-1.8-0.3-2.7c0-0.5,0.1-1.4-0.3-1.8c-0.5-0.5-1.7,0-2.3,0.1c-0.7,0.1-1.4,0.1-2.1-0.2c-0.7-0.3-1.2-0.8-1.6-1.4
				c-0.3-0.6-0.2-1.2-0.8-1.4c-1.4-0.6-3.2,0.1-4.7-0.5c-1.6-0.6-2.2-2-3.2-3.2c-1-1.2-2.4-2.1-3.8-2.7c-1.7-0.7-3.4-0.9-5.2-1
				c-0.8,0.6-1.4,0.6-1.4,0.6L6,65.9c0.5,0.4,1,0.7,1.6,1c1.7,0.9,3.5,1.1,5.3,1.7c3.5,1,5.2,3.6,6.6,6.8c1.2,2.6,3.9,7.1,0.8,9.4
				c-1.2,0.9-2.8,1-4.2,0.5c-0.8-0.3-1.5-0.7-2.1-1.2c-0.4-0.3-1.3-1.3-1.7-1.3c-0.4,0-0.9,1.3-1.1,1.6c-0.4,0.7-0.9,1.4-1.4,2.1
				c-0.6,0.7-1.3,1.4-2,2c4.5,1.8,6.1,4.4,7.5,6.7c1.2,2,2.1,3.5,4.9,4.4c7.4,2.5,9.2,7.5,9.2,7.7l0.2,0.7l-3.8,5.4l0.8,3.8
				l-1.7,2.2l1.7,1l4.9-2.1h7.8l7.6-0.8l7.9,11.1c0.6,0.4,2.8,1.5,6,0.4l0.1,0c1.4-2.5,3.2-4.8,5.8-6.4c1.9-1.2,4.4-2.2,4.7-4.7
				c0.2-1.5,0-3,0.6-4.5c0.5-1.4,1.3-2.5,1.3-4c0-0.5,0.1-1,0.1-1.5C72.1,107.8,71,107.5,70.1,106.6z"/>
		</g>
		<g>
			<path class="st0" d="M84.5,92.6c0,0-0.1-0.2-0.2-0.4c-0.3-0.4-0.8-0.6-1.2-0.8c-0.9-0.5-1.7-1.1-2.5-1.7c-1.5-1.3-2.5-3-2.7-5
				c-0.2-1.8,0.6-3.4,1.8-4.7c0.5-0.5,1.2-1.1,1.4-1.8c0.3-0.8-0.5-1.4-1-2c-1.3-1.5-2.7-3-4.2-4.4c-0.8-0.7-1.6-1.4-2.4-2.1
				c-0.2-0.2-0.6-0.6-0.7-0.5c-0.2,0-0.5,0.6-0.6,0.8c-1.9,2.3-6.7,2.3-7.7-1c-0.5-1.6,0.7-2.9,0.1-4.4c-0.6-1.4-1.6-2.5-1.8-4
				c-0.1-0.8-0.1-1.6,0.2-2.4c0.1-0.3,0.4-0.7,0.4-1.1c0-0.4,0-0.4-0.3-0.7c-1.1-1.2-1.2-2.8-0.4-4.3c0.9-1.5,2.5-2.2,4.1-2.4
				c1.7-0.3,3.3-0.3,4.6-1.6c2.5-2.5,2-7.4-0.5-9.8c-1.2-1.2-3.1-1.2-4.6-1.6c-1.9-0.5-3.6-1.7-5.3-2.7c-2.7-1.8-5.4-3.7-8-5.7
				c-7.9,2.2-17.3,5.6-23.4,7.6c-9.1,3-12.1,9.8-13.6,14.3c-0.1,0.4-0.3,0.7-0.4,1.1c1.5,0.2,3,0.5,4.4,1.1c1.6,0.7,3.2,1.6,4.4,2.9
				c1.2,1.3,1.8,3.1,3.8,3.2c1.5,0,3-0.1,4.3,0.7c0.7,0.4,1.2,1.1,1.4,1.8c0.2,0.7,0,0.8,0.8,0.7c1.7-0.2,3.3-0.8,4.7,0.7
				c1.1,1.1,1.2,2.7,1.2,4.2c0,0.8-0.1,1.7,0.6,2.2c0.6,0.5,1.5,0.8,2.2,1c1.8,0.7,3.7,1.3,5.6,1.8c1.6,0.4,3.2,0.7,4.3,1.9
				c0.8,0.9,1.3,2.1,1.8,3.2c0.2,0.5,0.5,1.1,1,1.4c0.6,0.4,1.4,0.3,2.1,0.4c1.6,0.2,2.8,1.1,3.4,2.6c0.6,1.6,0.3,3.4,0.3,5.1
				c0,1.1-0.1,2.1-0.1,3.2c0,0.4,0.1,1.1,0,1.5c0,0,0,0,0,0c0,0,0.1,0,0.1,0c3.2,0.1,5.7,3.2,6.9,5.9c0.8,1.7,1.2,3.6,1.9,5.4
				c0.3,0.9,1.3,3.4,2.8,2.7c0.1,0,0.2-0.1,0.3-0.1c0.2-1,0.6-1.9,1-2.9c1.1-2.2,2.6-4.3,4.5-5.9c1.4-1.2,3-2.2,4.7-2.8
				C84.2,92.9,84.3,92.8,84.5,92.6z"/>
		</g>
		<g>
			<g>
				<path class="st4" d="M162.9,42.8c-1.5,0-3.8-1.5-6.8-1.5c-3,0-3.8-1.5-3.8-1.5s1.5-3-0.8-3.8c-2.3-0.8-2.3-3-2.3-3
					c3.8,0,2.3-0.8,2.3-3c0-2.3,0.8-3.8,0.8-3.8H147c-5.1,0.5-8.7,0.1-10.8-0.3c-0.2,1.6-0.7,3.1-2,4.2c-0.9,0.7-1.9,1-2.9,1.1
					c-1.1,0.1-1.6,0.1-1.8,1.2c-0.3,1.8-0.1,3.5-1.2,5.1c-1.2,1.6-3.3,3.1-5.4,2.8c-2.1-0.3-3.7-2.3-5.1-3.6
					c-1.6-1.6-3.2-3.3-4.4-5.3c-0.6-0.9-1-1.9-1.5-2.9c-0.5-0.9-1.1-1.5-1.9-2.2c-1.4-1.1-2.3-3-1-4.6c1.3-1.6,3.6-1.7,5.4-1.9
					c1.1-0.2,2.3-0.3,3.4-0.5c-1.6-1.7-1-4.3-1-4.3c-0.4-3.4-4.1-2.6-5.7-3.4c-1.5-0.8-1.5-6.8-1.5-6.8l-6.8-3c0,0-4.5-2.3-9.8-1.5
					c-5.3,0.8-9.1,6-9.1,6h-3c0,0,0.8,5.3-1.5,7.5C77.3,16,75,16,74.2,20.6c-0.8,4.5-3.8,4.5-11.3,5.3c-1.7,0.2-3.8,0.6-6.1,1.2
					c0.8,0.6,1.7,1.2,2.5,1.8c2,1.4,4.1,3,6.3,4.1c1.8,1,4,0.9,5.9,1.8c1.9,0.9,3,2.7,3.7,4.5c1.4,3.5,1.3,7.6-1.3,10.5
					c-1.2,1.3-2.8,2.1-4.5,2.4c-0.8,0.1-4.4,0.2-4.2,1.7c0,0.3,0.6,0.7,0.8,1c0.3,0.4,0.4,0.7,0.5,1.2c0.2,0.8-0.1,1.6-0.4,2.4
					c-0.3,0.9-0.4,1.4-0.1,2.2c0.3,0.6,0.7,1.2,1,1.8c0.8,1.6,1.1,2.9,0.6,4.6c-0.1,0.5-0.3,0.8,0.1,1.1c0.2,0.2,0.6,0.3,0.9,0.3
					c0.7,0,1.1-0.3,1.5-0.8c1.2-1.4,2.6-2.2,4.3-1.1c1.7,1.1,3.2,2.7,4.7,4.1c1.4,1.4,2.9,2.9,4.1,4.6c1,1.3,1.2,2.9,0.4,4.4
					c-0.7,1.3-2.3,2.2-2.7,3.7c-0.5,1.8,1,3.5,2.3,4.5c1.4,1,3.2,1.7,4,3.3c0.1,0.3,0.2,0.6,0.3,0.9c0.8-0.2,1.6-0.3,2.5-0.6
					c1.4-0.4,2.4-1.2,3.5-2.2c1.2-1.1,2.3-1.9,3.8-2.5c1.2-0.5,2.7-0.9,3.6-1.9c1.1-1.2,0.2-2.3-0.2-3.6c-0.3-1.2-0.2-2.4,0.4-3.4
					c1.5-2.5,4.5-2.8,7.2-3c2.8-0.2,5.3-1.5,7-3.7c1.5-2,2.8-4.3,5.7-4.1c1.8,0.2,3.7,1.7,5.4,0.3c1.3-1.2,2-2.9,2.9-4.4
					c1-1.6,2.1-3.2,3.8-4.1c1.3-0.7,2.7-0.7,4.1-0.9c1-0.2,2.1-0.6,1.4-1.7c-0.6-1-1.3-1.8-1.3-3c0-1.1,0.5-2.1,1.4-2.6
					c1.9-1.2,4.1,0,6.1-0.7c2.3-0.8,3.9-2.9,6.4-3.4c2.4-0.4,4.6,0.5,6.7,1.5c0,0,0,0,0.1,0c2.3-0.6,5-1.3,6.5-2.1
					C167.4,44.3,164.4,42.8,162.9,42.8z M111.8,43.6c-0.9,1.7-3,2.2-4.7,2.3c-0.5,0-1.9,0-2.1,0.5c-0.2,0.5,0.5,1.6,0.7,2
					c0.7,1.7,0.6,3.6-1.3,4.5c-1.9,1-4.5,1-6.5,0.2c-2.1-0.9-3.1-3-4.8-4.5c-1.9-1.7-4.2-2-6.5-3.1c-1.9-0.9-3.4-2.9-2.9-5.2
					c0.2-0.9,0.7-1.7,1.2-2.5c0.4-0.6,1-1.3,0.7-2.1c-0.4-0.8-1.5-1.4-2.2-1.9c-0.8-0.7-1.6-1.4-2.1-2.3c-1.2-1.8-1.6-4.1-1.2-6.2
					c0.4-2.1,1.5-4.1,3.2-5.4c1.7-1.4,3.9-1.8,5.8-2.9c1.9-1.1,2.5-3.4,4.6-4.4c1.6-0.7,2.5-0.1,3.8,0.8c4.2,2.7,7.3,6.9,8.5,11.7
					c0.3,1.2,0.4,2.4,1.4,3.1c0.8,0.6,1.6,1,2.2,1.7c1.5,1.8,0.8,3.8-0.7,5.3c-0.4,0.4-1.3,1-1.3,1.7c0.1,0.7,1.1,1.3,1.6,1.7
					C110.9,39.8,112.9,41.4,111.8,43.6z"/>
			</g>
		</g>
	</g>
	<g>
		<path class="st0" d="M108.4,41.7c-0.7-0.5-1.4-1-2.1-1.6c-1.2-1.1-2-2.7-1.4-4.3c0.2-0.7,0.7-1.4,1.2-1.9c0.4-0.4,1.1-0.8,1.3-1.4
			c0.4-0.9-1.9-1.8-2.5-2.4c-1.4-1.4-1.5-3.4-2.1-5.2c-1.2-3.6-3.7-6.7-6.8-8.8c-0.3-0.2-0.7-0.4-1-0.7c-0.1,0.1-0.5,0.3-0.6,0.4
			c-0.4,0.3-0.6,0.8-0.9,1.2c-1.3,1.8-3,2.8-5,3.7c-2,0.8-3.8,1.6-4.8,3.6c-1,1.9-0.8,4.2,0.4,6c1,1.4,2.6,2.1,3.7,3.4
			c1.2,1.4,1.3,3.1,0.5,4.7c-0.6,1.2-2.4,2.7-1,4c0.8,0.8,2.1,1,3.1,1.3c0.9,0.3,1.8,0.7,2.6,1.2c1.8,1,3.1,2.5,4.4,4.1
			c1.3,1.6,3,2.2,5,1.6c0.8-0.2,0.8-0.1,0.5-0.9c-0.3-0.7-0.6-1.3-0.8-2c-0.4-1.6,0.1-3.2,1.6-4c1.5-0.8,3.1-0.3,4.7-0.9
			C109.4,42.3,109.1,42.2,108.4,41.7z"/>
	</g>
</g>
</svg>
