<svg xmlns="http://www.w3.org/2000/svg" viewBox="0 0 300 101">
  <g id="_100" data-name="100" transform="translate(0.014 0.047)">
    <path id="Subtraction_4" data-name="Subtraction 4" d="M159.6,101H8.4A8.418,8.418,0,0,1,0,92.583V8.417A8.418,8.418,0,0,1,8.4,0H159.6A8.418,8.418,0,0,1,168,8.417V92.583A8.418,8.418,0,0,1,159.6,101Zm-4.2-29.458a16.836,16.836,0,0,0-16.8,16.834h16.8Zm-142.8,0V88.376H29.4A16.836,16.836,0,0,0,12.6,71.542ZM59.663,20.257a23.527,23.527,0,0,0-23.5,23.5V57.813a23.527,23.527,0,0,0,23.5,23.5h48.675a23.527,23.527,0,0,0,23.5-23.5V43.757a23.527,23.527,0,0,0-23.5-23.5ZM138.6,12.625a16.836,16.836,0,0,0,16.8,16.833V12.625Zm-126,0V29.458A16.836,16.836,0,0,0,29.4,12.625Z" transform="translate(-0.014 -0.047)" fill="#fff579"/>
    <text id="_100-2" data-name="100" transform="translate(35.986 66.953)" fill="#fff579" font-size="50" font-family="SegoeUI-Bold, Segoe UI" font-weight="700"><tspan x="0" y="0">100</tspan></text>
  </g>
</svg>
