<svg xmlns="http://www.w3.org/2000/svg" viewBox="-2 0 15 7">
  <path d="M 1 0 L 1 0 C -5 0 -4 7 0 7 C 2 7 3 6 3 4 L 2 4 L 0 4 C 2 5 1 6 0 6 C -1 6 -2 5 -2 4 C -2 2 -1 1 2 2 Z M 4 4 L 4 7 L 5 7 L 5 4 L 4 4 Z M 4 2 L 4 2 A 1 1 0 0 0 4 3 A 1 1 0 0 0 5 3 A 1 1 0 0 0 5 2 A 1 1 0 0 0 4 2 Z M 7 7 L 7 3 L 6 3 L 6 2 L 7 2 C 7 1 7 0 8 0 L 9 0 L 9 1 C 8 1 8 1 8 2 L 9 2 L 9 3 L 8 3 L 8 7 L 7 7 Z M 10 4 L 10 3 L 11 3 L 11 2 L 12 2 L 12 3 L 13 3 L 13 4 L 12 4 C 12 6 12 6 13 6 L 13 7 C 12 7 11 7 11 6 L 11 4 L 10 4 Z" fill="#000000"/>
</svg>

