<svg xmlns="http://www.w3.org/2000/svg" width="56.25" height="51.122" viewBox="0 0 56.25 51.122">
  <g id="Page-1" transform="translate(-4.167 2.5)">
    <g id="_2682842---breeze-fast-speed-weather-wind-windy" data-name="2682842---breeze-fast-speed-weather-wind-windy" transform="translate(0 0)">
      <path id="Path" d="M0,59.572H33.3c3.793,0,6.867,3.361,6.867,7.508h0c0,4.147-3.075,7.508-6.867,7.508" transform="translate(6.667 -28.467)" fill="none" stroke="#a5a9aa" stroke-linecap="round" stroke-width="5" fill-rule="evenodd"/>
      <path id="Path-2" data-name="Path" d="M31.549.573C33.455.573,35,4.378,35,9.073h0c0,4.694-1.545,8.5-3.451,8.5H0" transform="translate(6.667 -0.573)" fill="none" stroke="#a5a9aa" stroke-linecap="round" stroke-width="5" fill-rule="evenodd"/>
      <path id="Path-3" data-name="Path" d="M77,40.572H91.969c1.766,0,3.2,2.916,3.2,6.512h0c-.006,3.587-1.436,6.488-3.2,6.488" transform="translate(-37.25 -16.52)" fill="none" stroke="#b9c1c6" stroke-linecap="round" stroke-width="5" fill-rule="evenodd"/>
      <path id="Path-4" data-name="Path" d="M42,39.572h8" transform="translate(-17.833 -15.519)" fill="none" stroke="#a5a9aa" stroke-linecap="round" stroke-width="5" fill-rule="evenodd"/>
      <path id="Path-5" data-name="Path" d="M0,39.572H8" transform="translate(6.667 -15.519)" fill="#d8d8d8" stroke="#b9c1c6" stroke-linecap="round" stroke-width="5" fill-rule="evenodd"/>
    </g>
  </g>
</svg>
