<svg xmlns="http://www.w3.org/2000/svg" width="56.511" height="54.34" viewBox="0 0 56.511 54.34">
  <g id="Page-1" transform="translate(-0.435 2)">
    <g id="_2682820---forecast-hail-rain-snow-stones-storm-weather" data-name="2682820---forecast-hail-rain-snow-stones-storm-weather" transform="translate(-2 1)">
      <circle id="Oval" cx="3.5" cy="3.5" r="3.5" transform="translate(50.62 10.5)" fill="#c4c4c4"/>
      <path id="Path" d="M1,98.351H49.942" transform="translate(6.004 -60.011)" fill="none" stroke="#0d98ff" stroke-linecap="round" stroke-linejoin="round" stroke-width="6" fill-rule="evenodd"/>
      <path id="Path-2" data-name="Path" d="M19,113.351H57.291" transform="translate(-6.671 -65.011)" fill="none" stroke="#0d98ff" stroke-linecap="round" stroke-linejoin="round" stroke-width="6" fill-rule="evenodd"/>
      <path id="Path-3" data-name="Path" d="M44,26.351v22c-1.74-1.089-5.948-3.075-5.948-3.075S31.706,42.9,28,42.043" transform="translate(-21.963 -18.06)" fill="none" stroke="#0baeff" stroke-linecap="round" stroke-linejoin="round" stroke-width="6" fill-rule="evenodd"/>
      <path id="Path-4" data-name="Path" d="M83,26.351v22a20.593,20.593,0,0,1,9.479-5.435A24.331,24.331,0,0,1,99,42.05" transform="translate(-45.363 -18.06)" fill="none" stroke="#0baeff" stroke-linecap="round" stroke-linejoin="round" stroke-width="6" fill-rule="evenodd"/>
      <circle id="Oval-2" data-name="Oval" cx="3.5" cy="3.5" r="3.5" transform="translate(3.195 10.5)" fill="#c4c4c4"/>
      <path id="Path-5" data-name="Path" d="M66,10.56v12" transform="translate(-35.679 -10.56)" fill="none" stroke="#0baeff" stroke-linecap="round" stroke-linejoin="round" stroke-width="6" fill-rule="evenodd"/>
      <path id="Path-6" data-name="Path" d="M66,51.351v10" transform="translate(-35.68 -30.351)" fill="none" stroke="#0baeff" stroke-linecap="round" stroke-linejoin="round" stroke-width="6" fill-rule="evenodd"/>
    </g>
  </g>
</svg>
