<svg xmlns="http://www.w3.org/2000/svg" xmlns:xlink="http://www.w3.org/1999/xlink" width="93.091" height="69.44" viewBox="0 0 93.091 69.44">
  <defs>
    <linearGradient id="linear-gradient" x1="0.245" y1="0.729" x2="0.637" y2="0.4" gradientUnits="objectBoundingBox">
      <stop offset="0" stop-color="#f2f2f2"/>
      <stop offset="1" stop-color="#cfcfcf"/>
    </linearGradient>
    <linearGradient id="linear-gradient-2" x1="0.725" y1="0.649" x2="0.087" y2="0.227" gradientUnits="objectBoundingBox">
      <stop offset="0.02" stop-color="#fff"/>
      <stop offset="1" stop-color="#fff" stop-opacity="0"/>
    </linearGradient>
  </defs>
  <g id="陰天" transform="translate(2.091 -29.147)">
    <g id="so_so_day" data-name="so so day" transform="translate(-2.091 29.147)">
      <path id="Path" d="M30.417,34.147c11.241,0,21.561,5.634,26.812,14.646a25.815,25.815,0,0,1,27.311,2.074c7.711,5.843,10.55,15.444,7.1,24S79.186,89.1,69.137,89.053l-38.806.094C13.58,89.147,0,76.834,0,61.647s13.58-27.5,30.331-27.5Z" transform="translate(0 -34.147)" fill="url(#linear-gradient)"/>
      <ellipse id="Oval" cx="23.401" cy="24.015" rx="23.401" ry="24.015" transform="matrix(0.269, -0.963, 0.963, 0.269, 25.049, 56.516)" fill="url(#linear-gradient-2)"/>
    </g>
  </g>
</svg>
