<svg xmlns="http://www.w3.org/2000/svg" xmlns:xlink="http://www.w3.org/1999/xlink" width="107.363" height="104.642" viewBox="0 0 107.363 104.642">
  <defs>
    <linearGradient id="linear-gradient" x1="0.244" y1="0.729" x2="0.636" y2="0.4" gradientUnits="objectBoundingBox">
      <stop offset="0" stop-color="#f2f2f2"/>
      <stop offset="1" stop-color="#cfcfcf"/>
    </linearGradient>
    <linearGradient id="linear-gradient-2" x1="0.725" y1="0.649" x2="0.087" y2="0.227" gradientUnits="objectBoundingBox">
      <stop offset="0.02" stop-color="#fff"/>
      <stop offset="1" stop-color="#fff" stop-opacity="0"/>
    </linearGradient>
  </defs>
  <g id="day-rain" transform="translate(21.317 8.431)">
    <g id="day---rain" transform="translate(-12 -3.931)">
      <ellipse id="Oval" cx="24.372" cy="25.551" rx="24.372" ry="25.551" transform="translate(32.178 12.419)" fill="#efcc00"/>
      <path id="Path" d="M84,.069v8" transform="translate(-24.072 -3.069)" fill="none" stroke="#efcc00" stroke-linecap="round" stroke-width="3" fill-rule="evenodd"/>
      <path id="Path-2" data-name="Path" d="M84,88.069v11" transform="translate(-18.072 -20.468)" fill="none" stroke="#efcc00" stroke-linecap="round" stroke-width="3" fill-rule="evenodd"/>
      <path id="Path-3" data-name="Path" d="M34,50.069H45" transform="translate(-7.931 -10.826)" fill="none" stroke="#efcc00" stroke-linecap="round" stroke-width="3" fill-rule="evenodd"/>
      <path id="Path-4" data-name="Path" d="M124,50.069h8" transform="translate(-35.454 -16.826)" fill="none" stroke="#efcc00" stroke-linecap="round" stroke-width="3" fill-rule="evenodd"/>
      <path id="Path-5" data-name="Path" d="M49,14.069l6,6" transform="translate(-18.431 -10.069)" fill="none" stroke="#efcc00" stroke-linecap="round" stroke-width="3" fill-rule="evenodd"/>
      <path id="Path-6" data-name="Path" d="M112,77.069l6,6" transform="translate(-28.078 -28.549)" fill="none" stroke="#efcc00" stroke-linecap="round" stroke-width="3" fill-rule="evenodd"/>
      <path id="Path-7" data-name="Path" d="M49,85.069l8-8" transform="translate(-11.173 -17.549)" fill="none" stroke="#efcc00" stroke-linecap="round" stroke-width="3" fill-rule="evenodd"/>
      <path id="Path-8" data-name="Path" d="M112,20.069l3-3,3-3" transform="translate(-30.078 -7.069)" fill="none" stroke="#efcc00" stroke-linecap="round" stroke-width="3" fill-rule="evenodd"/>
      <path id="Path-9" data-name="Path" d="M29.961,34.069C41.083,34.049,51.3,39.484,56.5,48.184a26.034,26.034,0,0,1,26.957,1.982c7.616,5.617,10.436,14.854,7.053,23.1S78.261,87,68.345,86.983l-38.384.091C13.414,87.074,0,75.209,0,60.572S13.414,34.069,29.961,34.069Z" transform="translate(-9.317 -4.754)" fill="url(#linear-gradient)"/>
      <ellipse id="Oval-2" data-name="Oval" cx="23.401" cy="24.015" rx="23.401" ry="24.015" transform="matrix(0.269, -0.963, 0.963, 0.269, 29.693, 72.659)" fill="url(#linear-gradient-2)"/>
      <path id="Path-10" data-name="Path" d="M43,127.069Z" transform="translate(-17.063 -37.086)" fill="#0baeff"/>
      <path id="Path-11" data-name="Path" d="M48,134.41a5,5,0,0,1-10,0c0-4.289,4.032-8.263,5-8.263S48,130.094,48,134.41Z" transform="translate(-22.265 -39.163)" fill="#0baeff"/>
      <path id="Path-12" data-name="Path" d="M48,134.41a5,5,0,0,1-10,0c0-4.289,4.032-8.263,5-8.263S48,130.094,48,134.41Z" transform="translate(-2.265 -39.163)" fill="#0baeff"/>
      <path id="Path-13" data-name="Path" d="M48,134.41a5,5,0,0,1-10,0c0-4.289,4.032-8.263,5-8.263S48,130.094,48,134.41Z" transform="translate(19.735 -39.163)" fill="#0baeff"/>
    </g>
  </g>
</svg>
