<svg xmlns="http://www.w3.org/2000/svg" xmlns:xlink="http://www.w3.org/1999/xlink" width="97.863" height="102.998" viewBox="0 0 97.863 102.998">
  <defs>
    <linearGradient id="linear-gradient" x1="0.244" y1="0.729" x2="0.636" y2="0.4" gradientUnits="objectBoundingBox">
      <stop offset="0" stop-color="#f2f2f2"/>
      <stop offset="1" stop-color="#cfcfcf"/>
    </linearGradient>
    <linearGradient id="linear-gradient-2" x1="0.725" y1="0.649" x2="0.087" y2="0.227" gradientUnits="objectBoundingBox">
      <stop offset="0.02" stop-color="#fff"/>
      <stop offset="1" stop-color="#fff" stop-opacity="0"/>
    </linearGradient>
  </defs>
  <g id="night-rain" transform="translate(21.317 6.788)">
    <g id="night_thunder-rain" data-name="night thunder-rain" transform="translate(-12 -3.931)">
      <path id="Path" d="M42.968,40.423A29.187,29.187,0,0,1,17.517,2.685a1.269,1.269,0,0,0-1.891-1.447A29.19,29.19,0,1,0,55.5,41.1a1.269,1.269,0,0,0-1.447-1.865A29.283,29.283,0,0,1,42.968,40.423Z" transform="translate(29.398 -3.898)" fill="#efcc00"/>
      <path id="Path-2" data-name="Path" d="M29.961,34.069C41.083,34.049,51.3,39.484,56.5,48.184a26.034,26.034,0,0,1,26.957,1.982c7.616,5.617,10.436,14.854,7.053,23.1S78.261,87,68.345,86.983l-38.384.091C13.414,87.074,0,75.209,0,60.572S13.414,34.069,29.961,34.069Z" transform="translate(-9.317 -4.754)" fill="url(#linear-gradient)"/>
      <ellipse id="Oval" cx="23.401" cy="24.015" rx="23.401" ry="24.015" transform="matrix(0.269, -0.963, 0.963, 0.269, 29.693, 72.659)" fill="url(#linear-gradient-2)"/>
      <path id="Path-3" data-name="Path" d="M43,127.069Z" transform="translate(-17.063 -37.086)" fill="#0baeff"/>
      <path id="Path-4" data-name="Path" d="M48,134.41a5,5,0,0,1-10,0c0-4.289,4.032-8.263,5-8.263S48,130.094,48,134.41Z" transform="translate(-22.265 -39.163)" fill="#0baeff"/>
      <path id="Path-5" data-name="Path" d="M48,134.41a5,5,0,0,1-10,0c0-4.289,4.032-8.263,5-8.263S48,130.094,48,134.41Z" transform="translate(-2.265 -39.163)" fill="#0baeff"/>
      <path id="Path-6" data-name="Path" d="M48,134.41a5,5,0,0,1-10,0c0-4.289,4.032-8.263,5-8.263S48,130.094,48,134.41Z" transform="translate(19.735 -39.163)" fill="#0baeff"/>
    </g>
  </g>
</svg>
